<svg id="Flat_iPhone_iPad..." data-name="Flat iPhone iPad..." xmlns="http://www.w3.org/2000/svg" xmlns:xlink="http://www.w3.org/1999/xlink" width="654" height="328" viewBox="0 0 654 328">
  <metadata><?xpacket begin="﻿" id="W5M0MpCehiHzreSzNTczkc9d"?>
<x:xmpmeta xmlns:x="adobe:ns:meta/" x:xmptk="Adobe XMP Core 5.6-c140 79.160451, 2017/05/06-01:08:21        ">
   <rdf:RDF xmlns:rdf="http://www.w3.org/1999/02/22-rdf-syntax-ns#">
      <rdf:Description rdf:about=""/>
   </rdf:RDF>
</x:xmpmeta>
                                                                                                    
                                                                                                    
                                                                                                    
                                                                                                    
                                                                                                    
                                                                                                    
                                                                                                    
                                                                                                    
                                                                                                    
                                                                                                    
                                                                                                    
                                                                                                    
                                                                                                    
                                                                                                    
                                                                                                    
                                                                                                    
                                                                                                    
                                                                                                    
                                                                                                    
                                                                                                    
                           
<?xpacket end="w"?></metadata>
<defs>
    <style>
      .cls-1, .cls-11 {
        fill: #0087b3;
      }

      .cls-2 {
        fill: #e8ebf0;
      }

      .cls-10, .cls-11, .cls-15, .cls-16, .cls-17, .cls-18, .cls-19, .cls-2, .cls-20, .cls-3, .cls-4, .cls-5, .cls-7, .cls-8, .cls-9 {
        fill-rule: evenodd;
      }

      .cls-12, .cls-3, .cls-4 {
        fill: #474e5d;
      }

      .cls-10, .cls-18, .cls-20, .cls-3, .cls-7 {
        opacity: 0.1;
      }

      .cls-5 {
        fill: #6bc4ea;
      }

      .cls-15, .cls-6 {
        fill: #a5adbd;
      }

      .cls-7 {
        fill: url(#linear-gradient);
      }

      .cls-8 {
        fill: #d8dbe1;
      }

      .cls-9 {
        fill: #fa565a;
      }

      .cls-10 {
        fill: url(#linear-gradient-2);
      }

      .cls-13 {
        fill: #fee79b;
      }

      .cls-14 {
        fill: #fff;
      }

      .cls-16 {
        opacity: 0.15;
        fill: url(#linear-gradient-3);
      }

      .cls-17 {
        fill: #f78c26;
      }

      .cls-18 {
        fill: url(#linear-gradient-4);
      }

      .cls-19 {
        fill: #00a885;
      }

      .cls-20 {
        fill: url(#linear-gradient-5);
      }
    </style>
    <linearGradient id="linear-gradient" x1="674.5" y1="426" x2="674.5" y2="627" gradientUnits="userSpaceOnUse">
      <stop offset="0" stop-color="#fff"/>
      <stop offset="1" stop-color="#fff" stop-opacity="0"/>
    </linearGradient>
    <linearGradient id="linear-gradient-2" x1="476.5" y1="576" x2="476.5" y2="723" xlink:href="#linear-gradient"/>
    <linearGradient id="linear-gradient-3" x1="756.5" y1="558" x2="756.5" y2="716" xlink:href="#linear-gradient"/>
    <linearGradient id="linear-gradient-4" x1="884.5" y1="592" x2="884.5" y2="716" xlink:href="#linear-gradient"/>
    <linearGradient id="linear-gradient-5" x1="827.5" y1="633" x2="827.5" y2="737" xlink:href="#linear-gradient"/>
  </defs>
  <g id="iMac">
    <ellipse id="Shadow" class="cls-1" cx="331" cy="291" rx="90" ry="3"/>
    <g id="Device">
      <path id="Stand" class="cls-2" d="M549,702.094v-3.413l13.01-1.716L572.672,660H644.3l10.662,36.965,13.01,1.716v3.413H549Z" transform="translate(-279 -412)"/>
      <path id="Shadow-2" data-name="Shadow" class="cls-3" d="M570.364,668l2.308-8H644.3l2.308,8H570.364Z" transform="translate(-279 -412)"/>
      <path id="iMac_base" data-name="iMac base" class="cls-4" d="M428,627V420a8,8,0,0,1,8-8H781a8,8,0,0,1,8,8V627H428Z" transform="translate(-279 -412)"/>
      <path id="iMac_bottom_base" data-name="iMac bottom base" class="cls-2" d="M781,660H436a8,8,0,0,1-8-8V627H789v25A8,8,0,0,1,781,660Z" transform="translate(-279 -412)"/>
      <path id="Apple" class="cls-4" d="M608.5,634.848a7.141,7.141,0,1,1-7.14,7.141A7.14,7.14,0,0,1,608.5,634.848Z" transform="translate(-279 -412)"/>
      <path id="Screen" class="cls-5" d="M775,426V613H442V426H775Z" transform="translate(-279 -412)"/>
      <circle id="Camera" class="cls-6" cx="330" cy="6.985" r="1.719"/>
    </g>
    <path id="Light" class="cls-7" d="M775,627H574L775,426V627Z" transform="translate(-279 -412)"/>
  </g>
  <g id="Macbook_pro_retina" data-name="Macbook pro retina">
    <ellipse id="Shadow-3" data-name="Shadow" class="cls-1" cx="162" cy="324" rx="162" ry="4"/>
    <g id="Device-2" data-name="Device">
      <path id="Macbook_base" data-name="Macbook base" class="cls-4" d="M441,723H324V576a8,8,0,0,1,8-8H550a8,8,0,0,1,8,8V723H441Z" transform="translate(-279 -412)"/>
      <path id="Keyboard_trackpad" data-name="Keyboard + trackpad" class="cls-2" d="M573,737H309a15,15,0,0,1-14.963-14H587.963A15,15,0,0,1,573,737Z" transform="translate(-279 -412)"/>
      <path id="Open" class="cls-8" d="M461.993,723a5,5,0,0,1-4.9,4H425a5,5,0,0,1-4.9-4h41.892Z" transform="translate(-279 -412)"/>
      <path id="Screen-2" data-name="Screen" class="cls-9" d="M441,715H332V576H550V715H441Z" transform="translate(-279 -412)"/>
      <circle id="Camera-2" data-name="Camera" class="cls-6" cx="162" cy="159.985" r="1.719"/>
    </g>
    <path id="Light-2" data-name="Light" class="cls-10" d="M550,576V723H403Z" transform="translate(-279 -412)"/>
  </g>
  <g id="ipad">
    <path id="Shadow-4" data-name="Shadow" class="cls-11" d="M763,712c39.267,0,71.1,1.791,71.1,4s-31.833,4-71.1,4-71.1-1.791-71.1-4S723.733,712,763,712Z" transform="translate(-279 -412)"/>
    <g id="Device-3" data-name="Device">
      <rect id="iPad_base" data-name="iPad base" class="cls-12" x="417" y="128" width="134" height="176" rx="10" ry="10"/>
      <rect id="Screen-3" data-name="Screen" class="cls-13" x="430" y="146" width="108" height="140"/>
      <circle id="Homebutton" class="cls-14" cx="484" cy="294.985" r="4.156"/>
      <path id="Speaker_cam" data-name="Speaker + cam" class="cls-15" d="M756,549a1,1,0,1,1-1,1A1,1,0,0,1,756,549Zm5,0h10a1,1,0,0,1,0,2H761A1,1,0,0,1,761,549Z" transform="translate(-279 -412)"/>
    </g>
    <path id="Light-3" data-name="Light" class="cls-16" d="M817,558V716H706a10,10,0,0,1-10-10V679Z" transform="translate(-279 -412)"/>
  </g>
  <g id="Ipad_mini" data-name="Ipad mini">
    <path id="Shadow-5" data-name="Shadow" class="cls-11" d="M886,712c25.916,0,46.926,1.791,46.926,4s-21.01,4-46.926,4-46.926-1.791-46.926-4S860.084,712,886,712Z" transform="translate(-279 -412)"/>
    <g id="Device-4" data-name="Device">
      <rect id="iPad_mini_base" data-name="iPad mini base" class="cls-12" x="561" y="166" width="93" height="138" rx="10" ry="10"/>
      <path id="Screen-4" data-name="Screen" class="cls-17" d="M928,702H844V591h85V702h-1Z" transform="translate(-279 -412)"/>
      <circle id="Homebutton-2" data-name="Homebutton" class="cls-14" cx="606" cy="296.985" r="4.156"/>
      <path id="Speaker_cam-2" data-name="Speaker + cam" class="cls-15" d="M876,584a1,1,0,1,1-1,1A1,1,0,0,1,876,584Zm5,0h10a1,1,0,0,1,0,2H881A1,1,0,0,1,881,584Z" transform="translate(-279 -412)"/>
    </g>
    <path id="Light-4" data-name="Light" class="cls-18" d="M929,592V713.986A9.942,9.942,0,0,1,923,716H850a10,10,0,0,1-10-10V681Z" transform="translate(-279 -412)"/>
  </g>
  <g id="iPhone">
    <ellipse id="Shadow-6" data-name="Shadow" class="cls-1" cx="550.5" cy="325" rx="34.5" ry="3"/>
    <g id="Device-5" data-name="Device">
      <rect id="iPhone_5_base" data-name="iPhone 5 base" class="cls-12" x="522" y="201" width="58" height="124" rx="10" ry="10"/>
      <path id="screen-5" data-name="screen" class="cls-19" d="M805,719V631h50v88H805Z" transform="translate(-279 -412)"/>
      <circle id="Homebutton-3" data-name="Homebutton" class="cls-14" cx="551" cy="315.985" r="4.156"/>
      <path id="Speaker_cam-3" data-name="Speaker + cam" class="cls-15" d="M822,622a1,1,0,1,1-1,1A1,1,0,0,1,822,622Zm5,0h10a1,1,0,0,1,0,2H827A1,1,0,0,1,827,622Z" transform="translate(-279 -412)"/>
    </g>
    <path id="Light-5" data-name="Light" class="cls-20" d="M854,633V735.651A9.937,9.937,0,0,1,849,737H811a10,10,0,0,1-10-10V686Z" transform="translate(-279 -412)"/>
  </g>
</svg>
