<svg xmlns="http://www.w3.org/2000/svg" width="16.316" height="16.375" viewBox="0 0 16.316 16.375">
  <metadata><?xpacket begin="﻿" id="W5M0MpCehiHzreSzNTczkc9d"?>
<x:xmpmeta xmlns:x="adobe:ns:meta/" x:xmptk="Adobe XMP Core 5.6-c140 79.160451, 2017/05/06-01:08:21        ">
   <rdf:RDF xmlns:rdf="http://www.w3.org/1999/02/22-rdf-syntax-ns#">
      <rdf:Description rdf:about=""/>
   </rdf:RDF>
</x:xmpmeta>
                                                                                                    
                                                                                                    
                                                                                                    
                                                                                                    
                                                                                                    
                                                                                                    
                                                                                                    
                                                                                                    
                                                                                                    
                                                                                                    
                                                                                                    
                                                                                                    
                                                                                                    
                                                                                                    
                                                                                                    
                                                                                                    
                                                                                                    
                                                                                                    
                                                                                                    
                                                                                                    
                           
<?xpacket end="w"?></metadata>
<defs>
    <style>
      .cls-1 {
        fill: #22b3df;
        fill-rule: evenodd;
      }
    </style>
  </defs>
  <path id="Google_Plus" data-name="Google Plus" class="cls-1" d="M999.95,40.006v1.707h-0.874V40.006h-1.71V39.1h1.71v-1.7h0.874v1.7h1.72v0.911h-1.72Zm-6.388-3.5a4.014,4.014,0,0,1,1.553,2.813A3.857,3.857,0,0,1,993,42.49c-0.562.744-.661,1.423,0.529,2.166s2.313,2.1,2.313,3.072c0,2.167-1.85,4.3-5.717,4.3s-4.791-1.972-4.791-3.136c0-2.748,4-3.589,5.089-3.589,0.244,0,.478.006,0.694,0.016a1.984,1.984,0,0,1-.595-1.374,2.672,2.672,0,0,1,.137-0.787c-0.126.007-.26,0.011-0.4,0.011a3.7,3.7,0,0,1-3.9-3.557c0-1.972,2.081-3.945,5.286-3.945h4.561l-1.364.841h-1.28Zm-6.311,11.906c0,2.231,2.775,2.619,4,2.619,3.337,0.065,3.734-2.975,1.85-4.268-0.427-.293-0.906-0.581-1.334-0.9-0.072,0-.145,0-0.219,0C990.72,45.86,987.251,46.183,987.251,48.414Zm5.55-9.688c-0.7-1.9-1.973-2.538-3.118-2.138s-1.722,1.684-1.027,3.587,1.973,2.538,3.117,2.138S993.5,40.629,992.8,38.726Z" transform="translate(-985.344 -35.656)"/>
</svg>
