<svg xmlns="http://www.w3.org/2000/svg" width="15.47" height="15.5" viewBox="0 0 15.47 15.5">
  <metadata><?xpacket begin="﻿" id="W5M0MpCehiHzreSzNTczkc9d"?>
<x:xmpmeta xmlns:x="adobe:ns:meta/" x:xmptk="Adobe XMP Core 5.6-c140 79.160451, 2017/05/06-01:08:21        ">
   <rdf:RDF xmlns:rdf="http://www.w3.org/1999/02/22-rdf-syntax-ns#">
      <rdf:Description rdf:about=""/>
   </rdf:RDF>
</x:xmpmeta>
                                                                                                    
                                                                                                    
                                                                                                    
                                                                                                    
                                                                                                    
                                                                                                    
                                                                                                    
                                                                                                    
                                                                                                    
                                                                                                    
                                                                                                    
                                                                                                    
                                                                                                    
                                                                                                    
                                                                                                    
                                                                                                    
                                                                                                    
                                                                                                    
                                                                                                    
                                                                                                    
                           
<?xpacket end="w"?></metadata>
<defs>
    <style>
      .cls-1 {
        fill: #22b3df;
        fill-rule: evenodd;
      }
    </style>
  </defs>
  <path id="Skype" class="cls-1" d="M1049.82,47.155a4.34,4.34,0,0,1-6.62,3.7,7.276,7.276,0,0,1-1.12.087,7.191,7.191,0,0,1-7.19-7.191,6.921,6.921,0,0,1,.09-1.122,4.346,4.346,0,0,1,5.98-5.981,7.186,7.186,0,0,1,8.31,7.1,6.933,6.933,0,0,1-.09,1.123A4.315,4.315,0,0,1,1049.82,47.155Zm-4.14-2.775a2.185,2.185,0,0,0-.73-0.785,4.547,4.547,0,0,0-1.14-.523,14.743,14.743,0,0,0-1.48-.392q-0.645-.153-0.93-0.232a2.8,2.8,0,0,1-.55-0.218,1.2,1.2,0,0,1-.43-0.328,0.684,0.684,0,0,1-.15-0.444,0.864,0.864,0,0,1,.45-0.716,2.132,2.132,0,0,1,1.2-.3,1.947,1.947,0,0,1,1.17.277,2.276,2.276,0,0,1,.62.781,2.195,2.195,0,0,0,.39.52,0.757,0.757,0,0,0,.53.164,0.853,0.853,0,0,0,.64-0.269,0.867,0.867,0,0,0,.26-0.607,1.531,1.531,0,0,0-.21-0.743,2.255,2.255,0,0,0-.63-0.722,3.358,3.358,0,0,0-1.09-.55,5.131,5.131,0,0,0-1.54-.206,5.521,5.521,0,0,0-1.95.311,2.782,2.782,0,0,0-1.28.894,2.179,2.179,0,0,0-.44,1.334,2.068,2.068,0,0,0,.42,1.319,2.875,2.875,0,0,0,1.13.834,9.605,9.605,0,0,0,1.75.531c0.51,0.11.93,0.213,1.23,0.311a1.87,1.87,0,0,1,.75.417,0.913,0.913,0,0,1,.28.7,1.069,1.069,0,0,1-.53.912,2.386,2.386,0,0,1-1.39.37,2.34,2.34,0,0,1-1.01-.183,1.6,1.6,0,0,1-.59-0.464,3.455,3.455,0,0,1-.39-0.708,1.535,1.535,0,0,0-.38-0.556,0.807,0.807,0,0,0-.54-0.191,0.9,0.9,0,0,0-.65.245,0.792,0.792,0,0,0-.26.589,2.1,2.1,0,0,0,.42,1.19,2.964,2.964,0,0,0,1.08.973,4.951,4.951,0,0,0,2.37.505,5.357,5.357,0,0,0,2.08-.369,2.966,2.966,0,0,0,1.33-1.026,2.494,2.494,0,0,0,.46-1.48A2.325,2.325,0,0,0,1045.68,44.38Z" transform="translate(-1034.34 -36)"/>
</svg>
