<svg xmlns="http://www.w3.org/2000/svg" xmlns:xlink="http://www.w3.org/1999/xlink" width="654" height="328" viewBox="0 0 654 328"><defs><style>.cls-1, .cls-11 { fill: #0087b3; } .cls-2 { fill: #e8ebf0; } .cls-10, .cls-11, .cls-15, .cls-16, .cls-17, .cls-18, .cls-19, .cls-2, .cls-20, .cls-3, .cls-4, .cls-5, .cls-7, .cls-8, .cls-9 { fill-rule: evenodd; } .cls-12, .cls-3, .cls-4 { fill: #474e5d; } .cls-10, .cls-18, .cls-20, .cls-3, .cls-7 { opacity: 0.1; } .cls-5 { fill: #6bc4ea; } .cls-15, .cls-6 { fill: #a5adbd; } .cls-7 { fill: url(#linear-gradient); } .cls-8 { fill: #d8dbe1; } .cls-9 { fill: #fa565a; } .cls-10 { fill: url(#linear-gradient-2); } .cls-13 { fill: #fee79b; } .cls-14 { fill: #fff; } .cls-16 { opacity: 0.15; fill: url(#linear-gradient-3); } .cls-17 { fill: #f78c26; } .cls-18 { fill: url(#linear-gradient-4); } .cls-19 { fill: #00a885; } .cls-20 { fill: url(#linear-gradient-5); }</style><linearGradient id="linear-gradient" x1="674.5" y1="426" x2="674.5" y2="627" gradientUnits="userSpaceOnUse"><stop offset="0" stop-color="#fff"/><stop offset="1" stop-color="#fff" stop-opacity="0"/></linearGradient><linearGradient id="linear-gradient-2" x1="476.5" y1="576" x2="476.5" y2="723" xlink:href="#linear-gradient"/><linearGradient id="linear-gradient-3" x1="756.5" y1="558" x2="756.5" y2="716" xlink:href="#linear-gradient"/><linearGradient id="linear-gradient-4" x1="884.5" y1="592" x2="884.5" y2="716" xlink:href="#linear-gradient"/><linearGradient id="linear-gradient-5" x1="827.5" y1="633" x2="827.5" y2="737" xlink:href="#linear-gradient"/></defs><g id="iMac"><ellipse id="Shadow" class="cls-1" cx="331" cy="291" rx="90" ry="3"/><g id="Device"><path id="Stand" class="cls-2" d="M270 290.094v-3.413l13.01-1.716 10.662-36.965h71.628l10.662 36.965 13.01 1.716v3.413h-118.972z"/><path id="Shadow-2" class="cls-3" d="M291.364 256l2.308-8h71.628l2.308 8h-76.244z"/><path id="iMac_base" class="cls-4" d="M428 627v-207a8 8 0 0 1 8-8h345a8 8 0 0 1 8 8v207h-361z" transform="translate(-279 -412)"/><path id="iMac_bottom_base" class="cls-2" d="M781 660h-345a8 8 0 0 1-8-8v-25h361v25a8 8 0 0 1-8 8z" transform="translate(-279 -412)"/><path id="Apple" class="cls-4" d="M608.5 634.848a7.141 7.141 0 1 1-7.14 7.141 7.14 7.14 0 0 1 7.14-7.141z" transform="translate(-279 -412)"/><path id="Screen" class="cls-5" d="M496 14v187h-333v-187h333z"/><circle id="Camera" class="cls-6" cx="330" cy="6.985" r="1.719"/></g><path id="Light" class="cls-7" d="M496 215h-201l201-201v201z"/></g><g id="Macbook_pro_retina"><ellipse id="Shadow-3" class="cls-1" cx="162" cy="324" rx="162" ry="4"/><g id="Device-2"><path id="Macbook_base" class="cls-4" d="M441 723h-117v-147a8 8 0 0 1 8-8h218a8 8 0 0 1 8 8v147h-117z" transform="translate(-279 -412)"/><path id="Keyboard_trackpad" class="cls-2" d="M573 737h-264a15 15 0 0 1-14.963-14h293.926a15 15 0 0 1-14.963 14z" transform="translate(-279 -412)"/><path id="Open" class="cls-8" d="M461.993 723a5 5 0 0 1-4.9 4h-32.093a5 5 0 0 1-4.9-4h41.892z" transform="translate(-279 -412)"/><path id="Screen-2" class="cls-9" d="M162 303h-109v-139h218v139h-109z"/><circle id="Camera-2" class="cls-6" cx="162" cy="159.985" r="1.719"/></g><path id="Light-2" class="cls-10" d="M271 164v147h-147z"/></g><g id="ipad"><path id="Shadow-4" class="cls-11" d="M484 300c39.267 0 71.1 1.791 71.1 4s-31.833 4-71.1 4-71.1-1.791-71.1-4 31.833-4 71.1-4z"/><g id="Device-3"><rect id="iPad_base" class="cls-12" x="417" y="128" width="134" height="176" rx="10" ry="10"/><path id="Screen-3" class="cls-13" d="M430 146h108v140h-108z"/><circle id="Homebutton" class="cls-14" cx="484" cy="294.985" r="4.156"/><path id="Speaker_cam" class="cls-15" d="M756 549a1 1 0 1 1-1 1 1 1 0 0 1 1-1zm5 0h10a1 1 0 0 1 0 2h-10a1 1 0 0 1 0-2z" transform="translate(-279 -412)"/></g><path id="Light-3" class="cls-16" d="M817 558v158h-111a10 10 0 0 1-10-10v-27z" transform="translate(-279 -412)"/></g><g id="Ipad_mini"><path id="Shadow-5" class="cls-11" d="M607 300c25.916 0 46.926 1.791 46.926 4s-21.01 4-46.926 4-46.926-1.791-46.926-4 21.01-4 46.926-4z"/><g id="Device-4"><rect id="iPad_mini_base" class="cls-12" x="561" y="166" width="93" height="138" rx="10" ry="10"/><path id="Screen-4" class="cls-17" d="M649 290h-84v-111h85v111h-1z"/><circle id="Homebutton-2" class="cls-14" cx="606" cy="296.985" r="4.156"/><path id="Speaker_cam-2" class="cls-15" d="M876 584a1 1 0 1 1-1 1 1 1 0 0 1 1-1zm5 0h10a1 1 0 0 1 0 2h-10a1 1 0 0 1 0-2z" transform="translate(-279 -412)"/></g><path id="Light-4" class="cls-18" d="M929 592v121.986a9.942 9.942 0 0 1-6 2.014h-73a10 10 0 0 1-10-10v-25z" transform="translate(-279 -412)"/></g><g id="iPhone"><ellipse id="Shadow-6" class="cls-1" cx="550.5" cy="325" rx="34.5" ry="3"/><g id="Device-5"><rect id="iPhone_5_base" class="cls-12" x="522" y="201" width="58" height="124" rx="10" ry="10"/><path id="screen-5" class="cls-19" d="M526 307v-88h50v88h-50z"/><circle id="Homebutton-3" class="cls-14" cx="551" cy="315.985" r="4.156"/><path id="Speaker_cam-3" class="cls-15" d="M822 622a1 1 0 1 1-1 1 1 1 0 0 1 1-1zm5 0h10a1 1 0 0 1 0 2h-10a1 1 0 0 1 0-2z" transform="translate(-279 -412)"/></g><path id="Light-5" class="cls-20" d="M854 633v102.651a9.937 9.937 0 0 1-5 1.349h-38a10 10 0 0 1-10-10v-41z" transform="translate(-279 -412)"/></g></svg>