<svg xmlns="http://www.w3.org/2000/svg" width="21.531" height="17" viewBox="0 0 21.531 17">
  <defs>
  <style>
  .cls-1 { fill: #22b3df; sroke: #ff0; fill-rule: evenodd; }
  </style>
  </defs>
  <path id="Twitter" class="cls-1" d="M957.528 37.013a9.023 9.023 0 0 1-2.536.676 4.329 4.329 0 0 0 1.942-2.374 9 9 0 0 1-2.8 1.042 4.469 4.469 0 0 0-3.229-1.357 4.355 4.355 0 0 0-4.416 4.292 4.207 4.207 0 0 0 .114.978 12.661 12.661 0 0 1-9.1-4.484 4.182 4.182 0 0 0-.6 2.158 4.257 4.257 0 0 0 1.965 3.572 4.5 4.5 0 0 1-2-.537v.054a4.328 4.328 0 0 0 3.543 4.209 4.562 4.562 0 0 1-2 .073 4.407 4.407 0 0 0 4.129 2.985 9.027 9.027 0 0 1-5.485 1.837 9.281 9.281 0 0 1-1.054-.06 12.767 12.767 0 0 0 6.77 1.923 12.3 12.3 0 0 0 12.566-12.21l-.012-.555a8.831 8.831 0 0 0 2.203-2.222z" transform="translate(-936 -35)"/>
</svg>