<svg xmlns="http://www.w3.org/2000/svg" width="14.15" height="17" viewBox="0 0 14.15 17">
  <metadata><?xpacket begin="﻿" id="W5M0MpCehiHzreSzNTczkc9d"?>
<x:xmpmeta xmlns:x="adobe:ns:meta/" x:xmptk="Adobe XMP Core 5.6-c140 79.160451, 2017/05/06-01:08:21        ">
   <rdf:RDF xmlns:rdf="http://www.w3.org/1999/02/22-rdf-syntax-ns#">
      <rdf:Description rdf:about=""/>
   </rdf:RDF>
</x:xmpmeta>
                                                                                                    
                                                                                                    
                                                                                                    
                                                                                                    
                                                                                                    
                                                                                                    
                                                                                                    
                                                                                                    
                                                                                                    
                                                                                                    
                                                                                                    
                                                                                                    
                                                                                                    
                                                                                                    
                                                                                                    
                                                                                                    
                                                                                                    
                                                                                                    
                                                                                                    
                                                                                                    
                           
<?xpacket end="w"?></metadata>
<defs>
    <style>
      .cls-1 {
        fill: #3cbce3;
        fill-rule: evenodd;
      }
    </style>
  </defs>
  <path id="Youtube" class="cls-1" d="M1070.64,47.435h-0.94l0.01-.542a0.442,0.442,0,0,1,.44-0.438h0.06a0.442,0.442,0,0,1,.44.438Zm-3.5-1.161a0.4,0.4,0,0,0-.43.354v2.636a0.438,0.438,0,0,0,.86,0V46.627A0.4,0.4,0,0,0,1067.14,46.274Zm5.68-1.474v5.014A2.261,2.261,0,0,1,1070.5,52h-9.52a2.258,2.258,0,0,1-2.31-2.187V44.8a2.258,2.258,0,0,1,2.31-2.187h9.52A2.261,2.261,0,0,1,1072.82,44.8Zm-11.2,5.558V45.076h1.18V44.294l-3.15,0v0.769l0.98,0v5.3h0.99Zm3.53-4.495h-0.98v2.82a4.5,4.5,0,0,1,0,.684c-0.08.219-.44,0.451-0.58,0.024-0.02-.075,0-0.3,0-0.688l-0.01-2.84h-0.98l0.01,2.795c0,0.428-.01.748,0,0.893a0.91,0.91,0,0,0,.25.726,1.2,1.2,0,0,0,1.51-.5l-0.01.582h0.79V45.863Zm3.15,3.23V46.745c0-.895-0.67-1.43-1.58-0.707l0.01-1.745-0.99,0v6.024l0.81-.012,0.07-.375C1067.65,50.88,1068.3,50.23,1068.3,49.092Zm3.08-.311-0.74,0V49.3a0.4,0.4,0,0,1-.4.4h-0.15a0.4,0.4,0,0,1-.4-0.4V48.213h1.69V47.577a9.753,9.753,0,0,0-.05-1.2c-0.12-.841-1.3-0.975-1.9-0.544a1.13,1.13,0,0,0-.41.556,3.273,3.273,0,0,0-.12.992v1.4C1068.9,51.111,1071.72,50.782,1071.38,48.781Zm-3.78-7.6a0.7,0.7,0,0,0,.23.3,0.724,0.724,0,0,0,.41.112,0.61,0.61,0,0,0,.37-0.117,0.86,0.86,0,0,0,.28-0.353l-0.02.386h1.1V36.84h-0.87v3.634a0.355,0.355,0,1,1-.71,0V36.84h-0.91v3.15c0,0.4.01,0.669,0.02,0.8A1.718,1.718,0,0,0,1067.6,41.183Zm-3.33-2.637a3.62,3.62,0,0,1,.12-1.05,1.108,1.108,0,0,1,.4-0.606,1.149,1.149,0,0,1,.74-0.23,1.327,1.327,0,0,1,.65.148,1.08,1.08,0,0,1,.43.383,1.582,1.582,0,0,1,.2.486,3.719,3.719,0,0,1,.05.765v1.181a5.67,5.67,0,0,1-.05.954,1.463,1.463,0,0,1-.21.567,1,1,0,0,1-.43.388,1.324,1.324,0,0,1-.59.125,1.614,1.614,0,0,1-.63-0.107,0.877,0.877,0,0,1-.41-0.324,1.55,1.55,0,0,1-.21-0.524,5.2,5.2,0,0,1-.06-0.921V38.545Zm0.86,1.855a0.464,0.464,0,0,0,.44.48,0.456,0.456,0,0,0,.43-0.48V37.915a0.456,0.456,0,0,0-.43-0.48,0.464,0.464,0,0,0-.44.48V40.4Zm-3.03,1.255h1.03V38.074l1.23-3.068h-1.14l-0.65,2.279L1061.91,35h-1.12l1.31,3.076v3.58Z" transform="translate(-1058.66 -35)"/>
</svg>
